<?xml version="1.0" encoding="UTF-8"?><svg id="Capa_1" xmlns="http://www.w3.org/2000/svg" viewBox="0 0 105 113"><defs><style>.cls-1{fill:#00ff18;}.cls-1,.cls-2{stroke-width:0px;}.cls-2{fill:#042c5b;}</style></defs><path class="cls-1" d="M72.21,10.27c.56,0,1.11.12,1.63.37,17.68,8.53,28.66,25.92,28.66,45.4,0,27.83-22.84,50.46-50.9,50.46-3.28,0-6.59-.32-9.84-.95-2.02-.39-3.33-2.33-2.94-4.33.4-2,2.35-3.31,4.37-2.91,2.78.54,5.61.81,8.41.81,23.96,0,43.46-19.33,43.46-43.08,0-14.56-7.19-27.76-19.12-35.71v47.43c.11,1.35.3,6.83-3.53,11.09-2.74,3.05-6.73,4.61-11.85,4.66-1.73.19-9.61.74-14.94-3.89-2.09-1.81-4.57-5.18-4.57-10.92,0-.05.03-1.1.05-2.36.04-2.02,1.7-3.63,3.72-3.63.02,0,.05,0,.07,0,2.06.04,3.69,1.72,3.66,3.76-.02,1.25-.05,2.27-.05,2.27,0,2.37.66,4.12,2.02,5.31,2.66,2.33,7.65,2.31,9.34,2.1.15-.02.32-.03.47-.03,3,0,5.18-.73,6.49-2.16,2.01-2.19,1.7-5.61,1.7-5.64-.01-.12-.02-.27-.02-.39V13.96c0-1.27.66-2.46,1.75-3.13.6-.37,1.29-.56,1.98-.56Z"/><path class="cls-2" d="M32.79,102.73c-.56,0-1.11-.12-1.63-.37C13.48,93.84,2.5,76.44,2.5,56.96,2.5,29.14,25.34,6.5,53.4,6.5c3.28,0,6.59.32,9.84.95,2.02.39,3.33,2.33,2.94,4.33-.4,2-2.35,3.31-4.37,2.91-2.78-.54-5.61-.81-8.41-.81-23.96,0-43.46,19.33-43.46,43.08,0,14.56,7.19,27.76,19.12,35.71v-47.43c-.11-1.35-.3-6.83,3.53-11.09,2.74-3.05,6.73-4.61,11.85-4.66,1.73-.19,9.61-.74,14.94,3.89,2.09,1.81,4.57,5.18,4.57,10.92,0,.05,0,1.54-.02,2.79-.04,2.02-1.7,3.63-3.72,3.63-.02,0-.05,0-.07,0-2.06-.04-3.69-1.72-3.66-3.76.02-1.25.02-2.7.02-2.7,0-2.37-.66-4.12-2.02-5.31-2.66-2.33-7.65-2.31-9.34-2.1-.15.02-.32.03-.47.03-3,0-5.18.73-6.49,2.16-2.01,2.19-1.7,5.61-1.7,5.64.01.12.02.27.02.39v53.97c0,1.27-.66,2.46-1.75,3.13-.6.37-1.29.56-1.98.56Z"/><ellipse class="cls-2" cx="52.31" cy="56.07" rx="6.36" ry="6.31"/></svg>